# xmcd
#
# Track frame offsets:
#	150
#	19039
#	36626
#	57053
#	72814
#	92983
#	108053
#	125304
#	140480
#	158483
#	175115
#	191429
#	210313
#	232414
#
# Disc length: 3307 seconds
#
# Revision: 1
# Processed by: cddbd v1.5.2PL0 Copyright (c) Steve Scherf et al.
# Submitted via: audiograbber 1.83.01
#
DISCID=b90ce90e
DTITLE=Star Disc - 4304
DYEAR=1900
DGENRE=
TTITLE0=Celine Dion - I Drove All Night
TTITLE1=Stacie Orrico - Stuck
TTITLE2=Santana and Musiz - Nothing At All
TTITLE3=Bowling For Soup - Girl All The Bad Guys Want
TTITLE4=O Town - I Showed Her
TTITLE5=Ashanti - Dreams
TTITLE6=Amanda Perez - Angel
TTITLE7=Boomkat - Wreckoning
TTITLE8=Matchbox Twenty - Unwell
TTITLE9=Macy Gray - When I See You
TTITLE10=Lisa Marie Presley - Lights Out
TTITLE11=Sixpence None The Richer - Don't Dream It's Over
TTITLE12=Coldplay - Clocks
TTITLE13=Josh Groban - You're Still You
EXTD=
EXTT0=
EXTT1=
EXTT2=
EXTT3=
EXTT4=
EXTT5=
EXTT6=
EXTT7=
EXTT8=
EXTT9=
EXTT10=
EXTT11=
EXTT12=
EXTT13=
PLAYORDER=
